# AST/ASF file generated using VICON BodyLanguage
# -----------------------------------------------
:version 1.10
:name VICON
:units
  mass 1.0
  length 0.45
  angle deg
:documentation
   .ast/.asf automatically generated from VICON data using
   VICON BodyBuilder and BodyLanguage model FoxedUp or BRILLIANT.MOD
:root
   order TX TY TZ RX RY RZ
   axis XYZ
   position 0 0 0  
   orientation 0 0 0 
:bonedata
  begin
     id 1 
     name lhipjoint
     direction 0.714689 -0.624256 0.315473 
     length 2.45343 
     axis 0 0 0  XYZ
  end
  begin
     id 2 
     name lfemur
     direction 0.34202 -0.939693 0  
     length 6.59069  
     axis 0 0 20  XYZ
    dof rx ry rz
    limits (-160.0 20.0)
           (-70.0 70.0)
           (-60.0 70.0)
  end
  begin
     id 3 
     name ltibia
     direction 0.34202 -0.939693 0   
     length 6.73476   
     axis 0 0 20   XYZ
    dof rx
    limits (-10.0 170.0)
  end
  begin
     id 4 
     name lfoot
     direction 0.0718085 -0.197292 0.977711   
     length 1.52607   
     axis -90 7.62852e-016 20   XYZ
    dof rx rz
    limits (-45.0 90.0)
           (-70.0 20.0)
  end
  begin
     id 5 
     name ltoes
     direction 1.53553e-011 -4.22024e-011 1   
     length 0.777832   
     axis -90 7.62852e-016 20   XYZ
    dof rx
    limits (-90.0 20.0)
  end
  begin
     id 6 
     name rhipjoint
     direction -0.727419 -0.612432 0.309497   
     length 2.50079  
     axis 0 0 0  XYZ 
  end
  begin
     id 7 
     name rfemur
     direction -0.34202 -0.939693 0   
     length 6.51665   
     axis 0 0 -20   XYZ
    dof rx ry rz
    limits (-160.0 20.0)
           (-70.0 70.0)
           (-70.0 60.0)
  end
  begin
     id 8 
     name rtibia
     direction -0.34202 -0.939693 0   
     length 6.48919   
     axis 0 0 -20   XYZ
    dof rx
    limits (-10.0 170.0)
 end
 begin
     id 9 
     name rfoot
     direction -0.112205 -0.308282 0.944655   
     length 1.68717  
     axis -90 -7.62852e-016 -20   XYZ
    dof rx rz
    limits (-45.0 90.0)
           (-20.0 70.0)
  end
  begin
     id 10 
     name rtoes
     direction -1.53583e-011 -4.21993e-011 1   
     length 0.846859   
     axis -90 -7.62852e-016 -20   XYZ
    dof rx
    limits (-90.0 20.0)
  end
  begin
     id 11 
     name lowerback
     direction -0.00119603 0.996364 -0.0851956   
     length 1.67242   
     axis 0 0 0   XYZ
    dof rx ry rz
    limits (-20.0 45.0)
           (-30.0 30.0)
           (-30.0 30.0)
  end
  begin
     id 12 
     name upperback
     direction -0.00531001 0.998318 0.0577248   
     length 1.64819   
     axis 0 0 0   XYZ
    dof rx ry rz
    limits (-20.0 45.0)
           (-30.0 30.0)
           (-30.0 30.0)
  end
  begin
     id 13 
     name thorax
     direction -0.00653676 0.995132 0.0983291   
     length 1.67429   
     axis 0 0 0   XYZ
    dof rx ry rz
    limits (-20.0 45.0)
           (-30.0 30.0)
           (-30.0 30.0)
  end
  begin
     id 14 
     name lowerneck
     direction 0.0141424 0.999886 0.00525412   
     length 1.59623   
     axis 0 0 0   XYZ
    dof rx ry rz
    limits (-20.0 45.0)
           (-30.0 30.0)
           (-30.0 30.0)
  end
  begin
     id 15 
     name upperneck
     direction -0.0640064 0.987178 -0.146232   
     length 1.59576   
     axis 0 0 0   XYZ
    dof rx ry rz
    limits (-20.0 45.0)
           (-30.0 30.0)
           (-30.0 30.0)
  end
  begin
     id 16
     name head
     direction -0.0222942 0.998496 -0.0500859  
     length 1.60959  
     axis 0 0 0   XYZ
    dof rx ry rz
    limits (-20.0 45.0)
           (-30.0 30.0)
           (-30.0 30.0)
  end
  begin
     id 17 
     name lclavicle
     direction 0.908549 0.392612 0.142806  
     length 2.80649  
     axis 0 0 0   XYZ
    dof ry rz
    limits (-20.0 10.0)
           (0.0 20.0)
  end
  begin
     id 18 
     name lhumerus
     direction 1 -4.48968e-011 1.08832e-028   
     length 4.2884   
     axis -180 -30 -90   XYZ
    dof rx ry rz
    limits (-60.0 90.0)
           (-90.0 90.0)
           (-90.0 90.0)
  end
  begin
     id 19
     name lradius
     direction 1 -4.48952e-011 -3.02642e-028   
     length 3.06552   
     axis -180 -30 -90   XYZ
    dof rx
    limits (-10.0 170.0)
  end
  begin
     id 20
     name lwrist
     direction 1 -4.49014e-011 1.58672e-027   
     length 1.53276   
     axis -1.65735e-015 90 90   XYZ
    dof ry
    limits (-180.0 0.0)
 end
  begin
     id 21 
     name lhand
     direction 1 -4.48928e-011 3.17344e-027   
     length 0.753045   
     axis -2.02492e-015 90 90   XYZ
    dof rx rz
    limits (-90.0 90.0)
           (-45.0 45.0)
  end
  begin
     id 22 
     name lfingers
     direction 1 -4.48958e-011 6.34687e-027   
     length 0.607124   
     axis -4.04985e-015 90 90   XYZ
    dof rx
    limits (0.0 90.0)
  end
  begin
     id 23
     name lthumb
     direction 0.707107 -6.34905e-011 0.707107   
     length 0.871712   
     axis -90 45 2.85299e-015   XYZ
    dof rx rz
    limits (-45.0 45.0)
           (-45.0 45.0)
  end
  begin
     id 24 
     name rclavicle
     direction -0.885098 0.45949 0.0739604   
     length 2.9478  
     axis 0 0 0   XYZ 
    dof ry rz
    limits (-10.0 20.0)
           (-20.0 0.0)
  end
  begin
     id 25 
     name rhumerus
     direction -1 -4.4898e-011 -2.61739e-027  
     length 4.52172   
     axis -180 30 90   XYZ
    dof rx ry rz
    limits (-90.0 60.0)
           (-90.0 90.0)
           (-90.0 90.0)
  end
  begin
     id 26 
     name rradius
     direction -1 -4.48945e-011 9.02552e-028   
     length 2.8914   
     axis -180 30 90   XYZ
    dof rx
    limits (-10.0 170.0)
  end
  begin
     id 27 
     name rwrist
     direction -1 -4.49018e-011 1.58672e-027   
     length 1.4457   
     axis -1.65735e-015 -90 -90   XYZ
    dof ry
    limits (-180.0 0.0)
  end
  begin
     id 28
     name rhand
     direction -1 -4.48825e-011 3.17344e-027   
     length 0.680541   
     axis -2.02492e-015 -90 -90   XYZ
    dof rx rz
    limits (-90.0 90.0)
           (-45.0 45.0)
  end
  begin
     id 29
     name rfingers
     direction -1 -4.49067e-011 6.34687e-027   
     length 0.54867   
     axis -4.04985e-015 -90 -90   XYZ
    dof rx
    limits (0.0 90.0)
  end
  begin
     id 30
     name rthumb
     direction -0.707107 -6.34833e-011 0.707107   
     length 0.787783   
     axis -90 -45 -2.85299e-015   XYZ
    dof rx rz
    limits (-45.0 45.0)
           (-45.0 45.0)
  end
:hierarchy
  begin
    root lhipjoint rhipjoint lowerback
    lhipjoint lfemur
    lfemur ltibia
    ltibia lfoot
    lfoot ltoes
    rhipjoint rfemur
    rfemur rtibia
    rtibia rfoot
    rfoot rtoes
    lowerback upperback
    upperback thorax
    thorax lowerneck lclavicle rclavicle
    lowerneck upperneck
    upperneck head
    lclavicle lhumerus
    lhumerus lradius
    lradius lwrist
    lwrist lhand lthumb
    lhand lfingers
    rclavicle rhumerus
    rhumerus rradius
    rradius rwrist
    rwrist rhand rthumb
    rhand rfingers
  end

#!OML:ASF E:\emotionWalksFemale\Project 1\Capture day 1\Session 1\Female1.ASF
:FULLY-SPECIFIED
:DEGREES
1070
root 8.66123 14.7554 20.1261 -172.826 13.0952 -170.053
lowerback 12.6506 2.0601 -3.83051
upperback -1.45497 2.2295 0.767087
thorax -8.86319 1.29319 2.53403
lowerneck -10.0017 -0.41469 -1.05665
upperneck 18.6252 -1.06041 7.2666
head 7.40837 0.37311 2.49334
rclavicle -1.5704e-014 -3.18055e-014
rhumerus -49.4487 26.9477 -104.924
rradius 42.8295
rwrist -10.6759
rhand 15.3561 -55.7569
rfingers 7.12502
rthumb -139.813 459.074
lclavicle -1.5704e-014 -3.18055e-014
lhumerus -44.949 12.8088 71.2266
lradius 31.9876
lwrist -16.295
lhand -6.03153 -32.5821
lfingers 7.12502
lthumb 19.802 -3.5708
rfemur 1.57846 1.9671 32.1317
rtibia 23.2666
rfoot -24.9621 -20.2019
rtoes -11.4738
lfemur -42.4761 -16.8252 4.81361
ltibia 37.5721
lfoot -12.567 12.0067
ltoes -20.064
1071
root 8.63573 14.7513 20.038 -172.829 13.1086 -170.128
lowerback 12.9173 2.01238 -4.08801
upperback -1.31841 2.10793 0.625544
thorax -8.86295 1.24245 2.54801
lowerneck -10.4149 -0.384307 -0.950958
upperneck 18.3104 -1.10616 7.49572
head 7.38375 0.365414 2.54203
rclavicle 1.51076e-014 -1.59028e-015
rhumerus -49.112 26.6177 -104.713
rradius 42.6809
rwrist -10.7911
rhand 15.5752 -55.5055
rfingers 7.12502
rthumb -139.607 459.388
lclavicle 1.51076e-014 -1.59028e-015
lhumerus -44.8491 12.7872 70.8481
lradius 31.8155
lwrist -16.8551
lhand -6.13057 -32.7633
lfingers 7.12502
lthumb 19.7068 -3.74225
rfemur 1.90014 1.94108 31.9035
rtibia 23.3173
rfoot -25.2407 -20.1392
rtoes -11.1148
lfemur -42.7588 -16.3251 4.24394
ltibia 38.4345
lfoot -11.7153 11.5904
ltoes -20.3104
1072
root 8.60844 14.7374 19.953 -172.923 12.841 -170.222
lowerback 13.434 1.8972 -4.30703
upperback -1.21413 1.89128 0.492464
thorax -9.03175 1.14815 2.56397
lowerneck -10.6719 -0.408083 -0.857154
upperneck 17.9305 -1.21495 7.73971
head 7.31322 0.325951 2.58971
rclavicle 6.57977e-014 -1.59028e-015
rhumerus -48.8665 26.307 -104.581
rradius 42.6647
rwrist -10.8267
rhand 15.9128 -55.9412
rfingers 7.12502
rthumb -139.29 459.051
lclavicle 6.57977e-014 -1.59028e-015
lhumerus -44.6994 12.8336 70.4923
lradius 31.6133
lwrist -17.5051
lhand -6.54319 -33.0976
lfingers 7.12502
lthumb 19.3101 -4.03631
rfemur 2.26207 1.69664 31.6994
rtibia 23.506
rfoot -25.5272 -20.0188
rtoes -9.97242
lfemur -43.0021 -15.8371 3.54754
ltibia 39.3061
lfoot -10.9529 11.0128
ltoes -22.3668
1073
root 8.58124 14.7244 19.8726 -172.573 13.1777 -170.204
lowerback 13.4721 1.9903 -4.61965
upperback -1.22493 1.95343 0.385146
thorax -9.07882 1.19184 2.61062
lowerneck -10.7202 -0.435715 -0.766163
upperneck 17.418 -1.30735 7.94427
head 7.16157 0.282562 2.62246
rclavicle 1.41137e-014 0
rhumerus -48.7134 25.9665 -104.438
rradius 42.6347
rwrist -10.6328
rhand 16.2954 -55.9826
rfingers 7.12502
rthumb -138.93 459.123
lclavicle 1.41137e-014 0
lhumerus -44.5696 12.5423 70.3617
lradius 31.6342
lwrist -17.8979
lhand -6.68392 -32.8632
lfingers 7.12502
lthumb 19.1748 -3.78847
rfemur 2.08379 2.0148 31.4777
rtibia 23.7926
rfoot -25.5906 -19.793
rtoes -8.53507
lfemur -43.3839 -14.9116 3.07269
ltibia 40.1912
lfoot -10.7263 10.672
ltoes -23.1307
1074
root 8.55417 14.7165 19.7918 -172.377 13.442 -170.11
lowerback 13.6622 2.05534 -4.8742
upperback -1.19084 1.98649 0.329701
thorax -9.16158 1.22082 2.68337
lowerneck -10.724 -0.401312 -0.848287
upperneck 16.9057 -1.29686 8.28236
head 6.99907 0.289409 2.73742
rclavicle 5.52621e-014 1.90833e-014
rhumerus -48.7008 25.8411 -104.453
rradius 42.5664
rwrist -10.7529
rhand 15.9656 -55.5558
rfingers 7.12502
rthumb -139.24 459.452
lclavicle 5.52621e-014 1.90833e-014
lhumerus -44.377 12.1761 70.295
lradius 31.624
lwrist -18.1219
lhand -6.15943 -32.3731
lfingers 7.12502
lthumb 19.6791 -3.34918
rfemur 2.05561 2.27604 31.3655
rtibia 24.0687
rfoot -25.4614 -19.8862
rtoes -9.03711
lfemur -43.6587 -14.0042 2.64226
ltibia 41.0467
lfoot -10.8595 10.0492
ltoes -21.9018
1075
root 8.52729 14.7135 19.7109 -172.2 13.7609 -169.888
lowerback 13.8823 2.1579 -5.03556
upperback -1.12148 2.088 0.317506
thorax -9.2271 1.27871 2.73438
lowerneck -10.9222 -0.368361 -0.92844
upperneck 16.5568 -1.28868 8.57015
head 6.92413 0.299961 2.83969
rclavicle -4.21423e-014 4.6118e-014
rhumerus -48.7106 26.0086 -104.641
rradius 42.46
rwrist -10.9929
rhand 14.8518 -54.746
rfingers 7.12502
rthumb -140.288 459.942
lclavicle -4.21423e-014 4.6118e-014
lhumerus -44.0939 11.7263 70.3233
lradius 31.6533
lwrist -18.1126
lhand -5.54916 -31.9421
lfingers 7.12502
lthumb 20.2657 -2.9793
rfemur 2.10508 2.48821 31.367
rtibia 24.2541
rfoot -25.0115 -20.1041
rtoes -10.6888
lfemur -43.8718 -13.0532 2.3445
ltibia 41.8611
lfoot -10.8541 9.30352
ltoes -20.5986
1076
root 8.49871 14.7086 19.6259 -172.035 13.9562 -169.658
lowerback 14.086 2.28106 -5.09568
upperback -1.03456 2.23344 0.279721
thorax -9.26266 1.35127 2.69071
lowerneck -11.1879 -0.472458 -0.848942
upperneck 16.3614 -1.47178 8.66691
head 6.91918 0.219792 2.83892
rclavicle -3.89618e-014 4.45278e-014
rhumerus -48.6598 26.0325 -104.7
rradius 42.3625
rwrist -10.51
rhand 14.9355 -54.3776
rfingers 7.12502
rthumb -140.209 460.334
lclavicle -3.89618e-014 4.45278e-014
lhumerus -43.6842 11.2065 70.4505
lradius 31.7482
lwrist -18.2295
lhand -5.44823 -31.7164
lfingers 7.12502
lthumb 20.3627 -2.76397
rfemur 2.25085 2.53424 31.371
rtibia 24.296
rfoot -24.5225 -20.2977
rtoes -11.8298
lfemur -43.9859 -12.3339 2.08382
ltibia 42.6095
lfoot -10.6825 8.71314
ltoes -21.7751
1077
root 8.46721 14.7024 19.5384 -171.911 13.9504 -169.385
lowerback 14.3385 2.31943 -5.0479
upperback -0.943423 2.28735 0.308353
thorax -9.31102 1.37646 2.67678
lowerneck -11.3144 -0.578333 -0.885886
upperneck 16.1246 -1.63013 8.75748
head 6.87508 0.13877 2.85595
rclavicle -3.18055e-015 3.65764e-014
rhumerus -48.6898 26.1874 -104.733
rradius 42.3159
rwrist -10.2862
rhand 15.582 -54.3329
rfingers 7.12502
rthumb -139.601 460.563
lclavicle -3.18055e-015 3.65764e-014
lhumerus -43.3039 10.8836 70.6032
lradius 31.8463
lwrist -18.3458
lhand -5.37117 -31.7436
lfingers 7.12502
lthumb 20.4368 -2.79905
rfemur 2.4708 2.46783 31.4408
rtibia 24.3241
rfoot -24.0764 -20.439
rtoes -12.5593
lfemur -44.0599 -11.8717 1.92673
ltibia 43.292
lfoot -10.6264 8.33495
ltoes -27.5585
1078
root 8.43378 14.6971 19.453 -171.761 13.8691 -169.028
lowerback 14.643 2.28186 -4.94862
upperback -1.04672 2.24239 0.419819
thorax -9.59604 1.35913 2.74165
lowerneck -10.7149 -0.574351 -1.05604
upperneck 15.6912 -1.57878 8.89579
head 6.62901 0.137616 2.92243
rclavicle -2.50469e-014 2.70347e-014
rhumerus -49.2842 26.4355 -105.045
rradius 42.3619
rwrist -10.4889
rhand 15.3949 -54.0395
rfingers 7.12502
rthumb -139.777 460.802
lclavicle -2.50469e-014 2.70347e-014
lhumerus -43.5555 10.3353 70.748
lradius 32.2636
lwrist -17.9686
lhand -5.49126 -32.0607
lfingers 7.12502
lthumb 20.3213 -3.10389
rfemur 2.64845 2.24006 31.6124
rtibia 24.4107
rfoot -23.4968 -20.6033
rtoes -13.7599
lfemur -44.2189 -11.5889 1.97787
ltibia 43.9177
lfoot -10.9147 8.05816
ltoes -31.4926
